PathFileType	4	(X/Y/Z)	6_coords_data.trc
DataRate	CameraRate	NumFrames	NumMarkers	Units	OrigDataRate	OrigDataStartFrame	OrigNumFrames
30.0	30.0	6	21	m	30.0	39	68
Frame#	Time	THUMB_TIP	THUMB_IP	THUMB_MCP	THUMB_CMC	INDEX_TIP	INDEX_DIP	INDEX_PIP	INDEX_MCP	MIDDLE_TIP	MIDDLE_DIP	MIDDLE_PIP	MIDDLE_MCP	RING_TIP	RING_DIP	RING_PIP	RING_MCP	PINKY_TIP	PINKY_DIP	PINKY_PIP	PINKY_MCP	WRIST
X1	Y1	Z1	X2	Y2	Z2	X3	Y3	Z3	X4	Y4	Z4	X5	Y5	Z5	X6	Y6	Z6	X7	Y7	Z7	X8	Y8	Z8	X9	Y9	Z9	X10	Y10	Z10	X11	Y11	Z11	X12	Y12	Z12	X13	Y13	Z13	X14	Y14	Z14	X15	Y15	Z15	X16	Y16	Z16	X17	Y17	Z17	X18	Y18	Z18	X19	Y19	Z19	X20	Y20	Z20	X21	Y21	Z21
37	1.2666666666666608	0.4464037144060694	-0.05688633932268117	-0.16899699396149775	0.45779827328839306	-0.05401425962283901	-0.1492507237801442	0.45696101570232217	-0.04002832951639945	-0.12145661003654096	0.467413629357608	-0.030693244467689285	-0.07910700490371025	0.5542337467955089	0.02833113238369178	-0.18386725803051301	0.5451533298200484	0.01944175463233222	-0.17096280179456863	0.532994160427289	0.007156520152379109	-0.1527080093703652	0.5115598315237964	-0.007752137965127193	-0.1190637297437745	0.5848902598513032	0.05866906329167709	-0.13545016395839382	0.5741606390060467	0.04500881932777956	-0.13032444729007903	0.55506796847863	0.025407343373500146	-0.12029142070059334	0.5227809239188127	0.0013610745363747956	-0.10091433037193287	0.5990905901479888	0.04729443303606773	-0.09013052018887557	0.5864771405529621	0.034445475512075774	-0.08923320203996174	0.5679634169386619	0.017899193148636305	-0.08732465366943579	0.5339517073214658	-0.0032356721115983644	-0.08173520706469378	0.5962469831430861	0.00814312245014781	-0.026180952622281567	0.5833238611835361	0.0009232813375271709	-0.034775533073188314	0.5661350117500722	-0.005424428847044638	-0.0450255111007935	0.5341924724820083	-0.00896871528210319	-0.06139608438869232	0.4622830810018609	-0.023011742144276925	-0.051989820119430985
38	1.299999999999994	0.447559565389709	-0.05638308459977737	-0.16935194620888347	0.4587131380914202	-0.05355680737510515	-0.14946199967710663	0.4574712905732645	-0.03983799907594876	-0.12155013636430279	0.4675849370578925	-0.030650724346520497	-0.07908605580402245	0.5551230179228552	0.028599191194256468	-0.1833065870422082	0.5458341535621031	0.01975011038491903	-0.17052336492423797	0.533385797065367	0.007524901724748068	-0.15242384761726394	0.5113914627548531	-0.007190611294659255	-0.11905711225383636	0.5856339840397571	0.058285527609840515	-0.135420114616824	0.5746242662453516	0.04486259716689889	-0.13026152445947442	0.5552037006983781	0.025585230874913933	-0.12022985796380423	0.5225373358992442	0.0020417865886883657	-0.1008710676361183	0.5997791426934284	0.04683322740170237	-0.09033040981435647	0.5869218329630901	0.03423261848995307	-0.08937425002054844	0.5681221286970192	0.018020309253051203	-0.08739634008444436	0.533770446701221	-0.002525451615239649	-0.08169068601128368	0.5970396348001125	0.007726462401443923	-0.027212444335267344	0.5838123436605915	0.0007802295505380252	-0.03556640257620591	0.56633379213886	-0.005251369701034236	-0.04551286255805914	0.5340969561480605	-0.008468655220415622	-0.061365904228005974	0.4622830810018608	-0.023011742144276925	-0.05198982011943101
39	1.3333333333333275	0.4489293269642305	-0.055567233999400334	-0.16983565479211657	0.45980055172084144	-0.05279742328564385	-0.1497821109431804	0.45803672508608395	-0.03953239547321086	-0.12167965637533346	0.46775022534695987	-0.03059176797792107	-0.07906976207046068	0.5563645833979134	0.028618374992871343	-0.18269147905328786	0.5467332948012388	0.019927162800636777	-0.1700541885764048	0.5338198648780742	0.007916227355071914	-0.15213797830910797	0.5110161797038411	-0.006382346537693873	-0.11913526900960386	0.5867075272165454	0.05745210059228778	-0.13567820255772522	0.5752583600364306	0.04443910396786743	-0.13042667994665244	0.5552917142703139	0.02576919749000728	-0.12031840615938455	0.522109845312319	0.003022910612025531	-0.10088343956000456	0.6007490991091761	0.04606617193684548	-0.09085493470929715	0.5875148569631927	0.03387230267031227	-0.08977586699493481	0.5682788970375737	0.018199891602961205	-0.08764669906450923	0.5334430913569972	-0.0014464268072872377	-0.08171292711841568	0.5982761957040863	0.006939978205286801	-0.0290608636551504	0.5845835297282792	0.00042377013379424344	-0.0370012623128996	0.5666428859133645	-0.005096081848855016	-0.046407459875996315	0.5339353814986539	-0.0077036356263084915	-0.06138421751105794	0.4622830810018608	-0.023011742144276925	-0.051989820119430985
40	1.3666666666666607	0.45061652471211233	-0.05417854492538188	-0.17049811208061258	0.4611150459903841	-0.051557172068354196	-0.15022721039089698	0.4586773215609916	-0.03895160776583828	-0.12187271783290049	0.46792700094706685	-0.030483901061020835	-0.07906347380294826	0.5578889951612178	0.028477603605682966	-0.1819808876033673	0.5477771302680231	0.0200867108478473	-0.16951721610945042	0.5342075997240103	0.008466564844881619	-0.15182965322801106	0.5103769585232031	-0.005230639141392102	-0.11930084696468815	0.5879536798692404	0.056207913895157224	-0.13632004473009976	0.5759016418571276	0.04382837778339188	-0.13088907194319657	0.5552051339635155	0.02608386589506717	-0.12058390775941183	0.5214348373411353	0.004394675214240529	-0.10095500064140833	0.6017782374368067	0.04516127135328185	-0.09199072066156225	0.5880666366830404	0.033533760433250626	-0.09065169318840438	0.5682882834148048	0.018600855698985064	-0.08820116728684316	0.5329326533038548	6.172493226908049e-05	-0.08179797403095093	0.599848775497312	0.005961254450506326	-0.03191454266432006	0.5855591901889465	2.1015153076731075e-05	-0.03923036857833817	0.5670177675278826	-0.004808699758425572	-0.047815327435396904	0.5336814074428583	-0.0066066221740147535	-0.06146589600484212	0.4622830810018608	-0.023011742144276925	-0.05198982011943096
41	1.3999999999999937	0.45302443253311264	-0.052172296388410255	-0.17135116564966044	0.4629550322836541	-0.0498379947170875	-0.1507615026047778	0.4595612287154708	-0.03812516437042912	-0.12212391013245244	0.46817367880722205	-0.030309676652186424	-0.0790584500148235	0.5596433027853034	0.02825266059387177	-0.18105605769010083	0.5489121250578929	0.020302083865199383	-0.1688237171837127	0.5345122566528488	0.00924915482580524	-0.1514315815308513	0.5094788902547084	-0.0037750580331110672	-0.11953586802288763	0.5893676466488166	0.0543569027220131	-0.13726103152767827	0.5765691886218696	0.042875082350265936	-0.1315718072322748	0.5549557948886445	0.026443236706363282	-0.12097627939891309	0.5205309095843558	0.006079832892274428	-0.10106630757846788	0.6028884998259243	0.04384160728101005	-0.09371915366612804	0.5885979129864366	0.032988602778660336	-0.09198958115968492	0.5681550776555417	0.01907359635852801	-0.08904967317446022	0.5322278414198479	0.0019425843887463934	-0.08194453704938451	0.6015613224703318	0.004779807477133913	-0.035803783814292195	0.5865816816961577	-0.0004258389324763856	-0.04224673404961213	0.5673619213027032	-0.0043839710914062024	-0.04971305973435455	0.533320449420145	-0.0051825251050893195	-0.061605240129733396	0.462283081001861	-0.023011742144276925	-0.05198982011943096
42	1.4333333333333271	0.4564780065409344	-0.04994932111998718	-0.1722627459393486	0.4655481304267186	-0.047901499628714594	-0.15124990986621437	0.4608630448627776	-0.037224776112279256	-0.12239029191634976	0.46854074528056033	-0.030125782107734644	-0.07902501547980181	0.5615891971039824	0.027803596485748705	-0.1798545462198138	0.5501072855097663	0.02046478711528943	-0.16792527201026253	0.5346963410466173	0.010174834024598622	-0.15093617288331868	0.5083028537028034	-0.0020858898020619243	-0.11984446062621884	0.5908126189720845	0.05173709058472098	-0.13844884667321888	0.5771680806727253	0.04144797767902608	-0.13245212004853596	0.5545070253605858	0.02674143539535212	-0.12151577073998387	0.5193807501598832	0.007998494591814787	-0.10124276204468641	0.603984708915415	0.04188664348572857	-0.09601447136589339	0.5890406796445194	0.03205591707616495	-0.09377107942266896	0.5678440734587749	0.019483880983651725	-0.0901894912700471	0.5313069442199273	0.004140581120893216	-0.08216813413392454	0.6031746910760327	0.0033355774386926162	-0.04076465844597821	0.5874768700518411	-0.000950244878656914	-0.04607598051835854	0.5675812738445228	-0.0038516175212489623	-0.052122409823672444	0.5328440571705005	-0.0034892927315597344	-0.0618217886434122	0.4622830810018609	-0.023011742144276925	-0.051989820119430985
